<svg width="215" height="215" viewBox="0 0 215 215" fill="none" xmlns="http://www.w3.org/2000/svg">
<path d="M107.418 204.272C163.984 204.272 209.84 177.797 209.84 145.138C209.84 112.479 163.984 86.0044 107.418 86.0044C50.8523 86.0044 4.99658 112.479 4.99658 145.138C4.99658 177.797 50.8523 204.272 107.418 204.272Z" fill="#F5F5F5"/>
<path d="M181.254 155.634C181.235 155.595 181.214 155.558 181.189 155.522C181.17 155.498 181.15 155.476 181.129 155.454C181.111 155.424 181.089 155.396 181.064 155.372L180.987 155.299C180.901 155.226 180.809 155.161 180.712 155.105L84.9551 99.8246C84.4761 99.584 83.9474 99.4587 83.4114 99.4587C82.8754 99.4587 82.3467 99.584 81.8677 99.8246L32.0393 128.514C31.9763 128.548 31.9159 128.587 31.8587 128.63C31.8587 128.63 31.8114 128.66 31.7942 128.678C31.6933 128.761 31.6062 128.859 31.5362 128.97C31.5195 128.993 31.5051 129.017 31.4932 129.043C31.4714 129.081 31.4541 129.121 31.4416 129.163C31.4329 129.195 31.4257 129.226 31.4201 129.258C31.414 129.309 31.414 129.361 31.4201 129.413C31.4179 129.449 31.4179 129.485 31.4201 129.52C31.4276 129.561 31.4376 129.601 31.4502 129.641C31.464 129.681 31.4812 129.72 31.5018 129.757C31.6259 129.983 31.8125 130.168 32.0393 130.29L127.8 185.567C128.086 185.721 128.396 185.828 128.716 185.88C128.924 185.913 129.134 185.93 129.344 185.932C129.551 185.931 129.758 185.916 129.963 185.885C130.031 185.876 130.099 185.863 130.165 185.846C130.356 185.802 130.542 185.738 130.72 185.657C130.78 185.631 130.832 185.597 130.888 185.567L180.712 156.881C181.297 156.546 181.46 156.064 181.254 155.634Z" fill="#E0E0E0"/>
<path d="M175.143 140.838C186.906 140.838 196.441 135.332 196.441 128.54C196.441 121.748 186.906 116.242 175.143 116.242C163.381 116.242 153.845 121.748 153.845 128.54C153.845 135.332 163.381 140.838 175.143 140.838Z" fill="#E0E0E0"/>
<path d="M63.124 192.236C62.2592 192.248 61.4061 192.036 60.6472 191.621L17.9912 166.999L17.9525 166.969C17.57 166.76 17.2493 166.454 17.0228 166.082C16.7963 165.71 16.672 165.285 16.6625 164.849C16.6835 164.399 16.8235 163.963 17.0683 163.586C17.3131 163.208 17.6538 162.902 18.0557 162.699L46.1949 146.454C46.9597 146.055 47.8093 145.847 48.6717 145.847C49.534 145.847 50.3836 146.055 51.1485 146.454L93.74 171.071C94.141 171.275 94.4809 171.581 94.7249 171.959C94.9689 172.336 95.1083 172.772 95.1289 173.221C95.1173 173.644 94.9968 174.056 94.7791 174.419C94.5614 174.781 94.2538 175.081 93.8862 175.29C93.8312 175.33 93.7737 175.368 93.7142 175.401L72.4206 187.686L65.5922 191.63C64.8329 192.043 63.9798 192.253 63.1154 192.24L63.124 192.236Z" fill="#E0E0E0"/>
<path d="M177.1 149.296C177.082 149.256 177.059 149.218 177.031 149.184C177.014 149.16 176.995 149.137 176.975 149.115C176.956 149.085 176.933 149.058 176.906 149.034L176.833 148.965C176.747 148.889 176.654 148.823 176.554 148.767L83.42 94.9869C82.941 94.7464 82.4123 94.6211 81.8763 94.6211C81.3403 94.6211 80.8116 94.7464 80.3326 94.9869L34.6494 121.35L34.4645 121.466L34.4043 121.518C34.3024 121.598 34.2152 121.696 34.1463 121.806C34.1035 121.866 34.0715 121.933 34.0517 122.004C34.0492 122.035 34.0492 122.067 34.0517 122.098C34.0454 122.15 34.0454 122.202 34.0517 122.253C34.0496 122.289 34.0496 122.325 34.0517 122.361C34.0597 122.401 34.0697 122.442 34.0818 122.481C34.095 122.521 34.1108 122.56 34.1291 122.597C34.257 122.825 34.4482 123.01 34.6795 123.13L127.8 176.915C128.085 177.07 128.395 177.175 128.716 177.224C128.924 177.26 129.134 177.279 129.344 177.28C129.551 177.28 129.759 177.263 129.963 177.229C130.031 177.22 130.099 177.207 130.165 177.19C130.357 177.148 130.543 177.084 130.72 177.001C130.78 176.975 130.832 176.945 130.888 176.915L176.554 150.547C177.16 150.208 177.323 149.726 177.1 149.296ZM167.068 147.387L164.148 149.077L125.237 171.523C125.137 171.582 125.032 171.634 124.924 171.677C124.606 171.809 124.266 171.877 123.922 171.877C123.578 171.877 123.237 171.809 122.92 171.677C122.811 171.634 122.707 171.582 122.606 171.523L48.7276 128.871L45.15 126.811C45.0249 126.741 44.9117 126.651 44.8146 126.545C44.4448 126.14 44.5609 125.624 45.15 125.28L86.9632 101.14C87.4396 100.816 88.0091 100.658 88.5843 100.689C88.7219 100.706 88.8565 100.742 88.9842 100.796C89.0558 100.823 89.1249 100.856 89.1906 100.895L167.068 145.856C167.202 145.934 167.313 146.046 167.39 146.18C167.467 146.314 167.508 146.466 167.508 146.621C167.508 146.776 167.467 146.928 167.39 147.063C167.313 147.197 167.202 147.309 167.068 147.387Z" fill="#455A64"/>
<path d="M34.4688 121.471C34.0709 121.774 33.7434 122.159 33.5089 122.601C33.2743 123.043 33.1382 123.53 33.11 124.029V126.067C33.138 126.604 33.2925 127.126 33.5608 127.592C33.829 128.057 34.2035 128.453 34.6537 128.746L127.787 182.522C128.138 182.715 128.524 182.833 128.923 182.87C129.06 182.87 129.193 182.892 129.353 182.896V177.28C129.142 177.276 128.933 177.259 128.725 177.229C128.402 177.176 128.091 177.069 127.805 176.911L34.6494 123.131C33.8625 122.679 33.798 121.961 34.4688 121.471Z" fill="#37474F"/>
<path d="M152.431 160.248C151.574 159.824 150.63 159.603 149.674 159.603C148.718 159.603 147.775 159.824 146.918 160.248C146.583 160.425 146.299 160.684 146.092 161.001C145.598 161.861 146.522 162.506 146.918 162.746C147.775 163.171 148.718 163.391 149.674 163.391C150.63 163.391 151.574 163.171 152.431 162.746C152.763 162.566 153.046 162.308 153.256 161.994C153.751 161.134 152.839 160.489 152.431 160.248Z" fill="#E58D26"/>
<path d="M61.2191 110.587C61.3063 110.554 61.3813 110.495 61.4342 110.418C61.4872 110.342 61.5155 110.251 61.5155 110.157C61.5155 110.064 61.4872 109.973 61.4342 109.896C61.3813 109.819 61.3063 109.76 61.2191 109.727C60.9852 109.609 60.7267 109.547 60.4645 109.547C60.2022 109.547 59.9437 109.609 59.7098 109.727C59.6226 109.76 59.5476 109.819 59.4947 109.896C59.4417 109.973 59.4134 110.064 59.4134 110.157C59.4134 110.251 59.4417 110.342 59.4947 110.418C59.5476 110.495 59.6226 110.554 59.7098 110.587C59.9437 110.706 60.2022 110.768 60.4645 110.768C60.7267 110.768 60.9852 110.706 61.2191 110.587Z" fill="#263238"/>
<path d="M58.8498 114.715C58.9225 114.68 58.9838 114.625 59.0267 114.557C59.0696 114.488 59.0924 114.409 59.0924 114.328C59.0924 114.247 59.0696 114.168 59.0267 114.1C58.9838 114.031 58.9225 113.976 58.8498 113.941C58.6415 113.837 58.4118 113.783 58.179 113.783C57.9461 113.783 57.7165 113.837 57.5082 113.941C57.4355 113.976 57.3742 114.031 57.3313 114.1C57.2884 114.168 57.2656 114.247 57.2656 114.328C57.2656 114.409 57.2884 114.488 57.3313 114.557C57.3742 114.625 57.4355 114.68 57.5082 114.715C57.7159 114.821 57.9458 114.877 58.179 114.877C58.4122 114.877 58.6421 114.821 58.8498 114.715Z" fill="#263238"/>
<path d="M61.1159 113.438L68.6151 109.108C69.0451 108.872 69.0451 108.498 68.6581 108.274C68.4325 108.165 68.1845 108.111 67.9342 108.117C67.6839 108.122 67.4384 108.186 67.2176 108.304L59.7184 112.63C59.3099 112.871 59.2884 113.24 59.6754 113.464C59.9006 113.573 60.1484 113.628 60.3987 113.624C60.649 113.619 60.8947 113.556 61.1159 113.438Z" fill="#263238"/>
<path d="M176.76 148.905C177.397 149.399 177.328 150.1 176.554 150.547L130.883 176.915C130.409 177.168 129.877 177.294 129.34 177.28V182.892C129.876 182.902 130.406 182.775 130.879 182.522L176.549 156.159C177 155.866 177.374 155.471 177.642 155.007C177.911 154.542 178.065 154.02 178.093 153.484V151.442C178.065 150.948 177.931 150.466 177.702 150.029C177.472 149.591 177.151 149.208 176.76 148.905Z" fill="#263238"/>
<path d="M56.4332 137.286C56.6607 137.429 56.8515 137.623 56.9904 137.853C57.1293 138.083 57.2124 138.343 57.233 138.61C57.2425 138.701 57.2267 138.792 57.1872 138.874C57.1477 138.956 57.0861 139.026 57.0094 139.075C56.9148 139.131 56.5536 139.346 56.4504 139.402C56.357 139.441 56.2548 139.456 56.1538 139.445C56.0529 139.434 55.9565 139.397 55.8742 139.337L45.4897 133.317C45.263 133.174 45.073 132.979 44.9349 132.749C44.7968 132.519 44.7143 132.26 44.6942 131.993C44.6866 131.906 44.7012 131.818 44.7366 131.739C44.7719 131.659 44.8269 131.59 44.8963 131.537L45.4725 131.201C45.566 131.162 45.6681 131.147 45.7691 131.158C45.8701 131.169 45.9664 131.206 46.0487 131.266L56.4332 137.286Z" fill="#455A64"/>
<path d="M55.8742 137.6L45.4897 131.606C45.0597 131.352 44.6942 131.533 44.6942 132.01C44.7143 132.278 44.7968 132.537 44.9349 132.767C45.073 132.997 45.263 133.191 45.4897 133.334L55.8742 139.354C56.3042 139.608 56.674 139.428 56.674 138.95C56.6574 138.678 56.5761 138.413 56.4371 138.179C56.298 137.944 56.1051 137.745 55.8742 137.6Z" fill="#263238"/>
<path d="M42.5313 129.258C42.7593 129.401 42.9505 129.596 43.0894 129.827C43.2284 130.058 43.3111 130.318 43.3311 130.587C43.3396 130.677 43.3237 130.767 43.2852 130.849C43.2466 130.931 43.1867 131.001 43.1118 131.051C43.0129 131.103 42.6517 131.322 42.5528 131.378C42.459 131.417 42.3566 131.431 42.2556 131.419C42.1547 131.407 42.0585 131.369 41.9766 131.309L37.0789 128.484C36.8522 128.341 36.6622 128.146 36.5241 127.916C36.3859 127.686 36.3035 127.427 36.2834 127.16C36.2737 127.073 36.2873 126.984 36.3228 126.904C36.3583 126.824 36.4144 126.755 36.4855 126.704C36.5801 126.639 36.9585 126.424 37.0617 126.368C37.1549 126.327 37.2573 126.312 37.3585 126.323C37.4597 126.334 37.5561 126.372 37.6379 126.433L42.5313 129.258Z" fill="#455A64"/>
<path d="M41.9766 129.58L37.0789 126.755C36.6489 126.502 36.2834 126.682 36.2834 127.159C36.3035 127.427 36.3859 127.686 36.5241 127.916C36.6622 128.146 36.8522 128.34 37.0789 128.484L41.9766 131.309C42.4066 131.563 42.7721 131.382 42.7721 130.905C42.752 130.637 42.6695 130.378 42.5314 130.148C42.3933 129.918 42.2033 129.724 41.9766 129.58Z" fill="#263238"/>
<path d="M167.068 147.365L164.148 149.051L125.238 171.501C125.136 171.559 125.031 171.61 124.924 171.656C124.606 171.788 124.266 171.856 123.922 171.856C123.578 171.856 123.237 171.788 122.92 171.656C122.812 171.61 122.707 171.559 122.606 171.501L48.7276 128.849L45.1543 126.785C45.0285 126.718 44.9151 126.629 44.8189 126.523C44.4491 126.119 44.5652 125.599 45.1543 125.255L86.9675 101.119C87.4465 100.802 88.0158 100.651 88.5886 100.689C88.7263 100.706 88.8609 100.742 88.9885 100.796C89.0601 100.823 89.1292 100.856 89.1949 100.895L167.068 145.856C167.197 145.935 167.303 146.046 167.377 146.178C167.451 146.31 167.49 146.459 167.49 146.611C167.49 146.762 167.451 146.911 167.377 147.043C167.303 147.175 167.197 147.286 167.068 147.365Z" fill="#E58D26"/>
<path opacity="0.8" d="M167.068 147.365L164.148 149.051L125.238 171.501C125.136 171.559 125.031 171.61 124.924 171.656C124.606 171.788 124.266 171.856 123.922 171.856C123.578 171.856 123.237 171.788 122.92 171.656C122.812 171.61 122.707 171.559 122.606 171.501L48.7276 128.849L45.1543 126.785C45.0285 126.718 44.9151 126.629 44.8189 126.523C44.4491 126.119 44.5652 125.599 45.1543 125.255L86.9675 101.119C87.4465 100.802 88.0158 100.651 88.5886 100.689C88.7263 100.706 88.8609 100.742 88.9885 100.796C89.0601 100.823 89.1292 100.856 89.1949 100.895L167.068 145.856C167.197 145.935 167.303 146.046 167.377 146.178C167.451 146.31 167.49 146.459 167.49 146.611C167.49 146.762 167.451 146.911 167.377 147.043C167.303 147.175 167.197 147.286 167.068 147.365Z" fill="white"/>
<path d="M53.9822 123.629C53.9611 123.625 53.9408 123.618 53.922 123.608L53.7199 123.487L53.2254 123.775C53.2127 123.784 53.1977 123.788 53.1824 123.788C53.1671 123.788 53.1521 123.784 53.1394 123.775L53.0663 123.737L53.0319 123.711C53.0311 123.701 53.0311 123.691 53.0319 123.681L52.8255 122.954C52.824 122.944 52.824 122.934 52.8255 122.924C52.8318 122.913 52.8407 122.904 52.8513 122.898L52.9201 122.859C52.9412 122.854 52.9635 122.854 52.9846 122.859C53.0074 122.862 53.0294 122.869 53.0491 122.881L53.7629 123.311L53.8747 123.251C53.8927 123.244 53.9126 123.244 53.9306 123.251C53.9536 123.252 53.9759 123.259 53.9951 123.272L54.0424 123.298C54.0639 123.298 54.0768 123.324 54.0768 123.332C54.0768 123.341 54.0768 123.354 54.0467 123.367L53.9392 123.431L54.1456 123.547C54.1603 123.555 54.1723 123.567 54.18 123.582C54.18 123.582 54.18 123.603 54.1456 123.616L54.0639 123.668C54.0335 123.663 54.0051 123.65 53.9822 123.629ZM53.5522 123.371L53.0448 123.074L53.1953 123.577L53.5522 123.371Z" fill="#455A64"/>
<path d="M54.4466 123.216C54.2281 123.203 54.0158 123.139 53.8274 123.027C53.6253 122.907 53.5135 122.791 53.5006 122.67C53.4877 122.55 53.5694 122.438 53.7414 122.335C53.8131 122.296 53.8878 122.263 53.965 122.236C54.0392 122.213 54.1156 122.197 54.1929 122.189C54.1929 122.189 54.2187 122.189 54.2273 122.189C54.2359 122.189 54.2273 122.189 54.2273 122.189L54.2703 122.27H54.2402C54.1268 122.282 54.017 122.318 53.9177 122.374C53.8016 122.442 53.7457 122.52 53.7543 122.606C53.7629 122.692 53.8489 122.774 54.008 122.864C54.1379 122.946 54.285 122.998 54.438 123.014C54.5715 123.021 54.7042 122.99 54.8207 122.924L54.9325 122.847C54.9577 122.826 54.9794 122.801 54.997 122.774L54.6616 122.58L54.4552 122.696C54.4359 122.704 54.4143 122.704 54.395 122.696C54.3734 122.694 54.3527 122.687 54.3348 122.675L54.2875 122.649C54.2875 122.649 54.2531 122.623 54.2531 122.614C54.2531 122.606 54.2531 122.593 54.2832 122.58L54.61 122.391C54.6326 122.385 54.6562 122.385 54.6788 122.391C54.7053 122.391 54.7309 122.4 54.7519 122.417L55.2292 122.692C55.2429 122.697 55.2548 122.706 55.2636 122.718C55.2636 122.718 55.2636 122.718 55.2636 122.743C55.2077 122.87 55.1065 122.971 54.9798 123.027C54.823 123.139 54.6384 123.204 54.4466 123.216Z" fill="#455A64"/>
<path d="M58.5359 120.765C58.695 120.86 58.695 121.006 58.5359 121.096C58.4478 121.143 58.3496 121.168 58.2499 121.168C58.1502 121.168 58.0521 121.143 57.964 121.096C57.8049 121.006 57.8049 120.86 57.964 120.765C58.0527 120.721 58.1506 120.698 58.2499 120.698C58.3492 120.698 58.4472 120.721 58.5359 120.765Z" fill="#455A64"/>
<path d="M57.4953 120.494C57.2072 120.662 57.1169 120.903 57.2287 121.114C57.2493 121.138 57.276 121.157 57.3061 121.169C57.3363 121.18 57.3689 121.183 57.4007 121.178C57.4953 121.178 57.5641 121.114 57.534 121.062C57.4523 120.912 57.534 120.744 57.7189 120.632C57.9501 120.511 58.2157 120.473 58.4714 120.525C58.566 120.525 58.6606 120.524 58.6735 120.447C58.6735 120.4 58.6348 120.361 58.5617 120.344C58.1993 120.279 57.8255 120.331 57.4953 120.494Z" fill="#455A64"/>
<path d="M57.0352 120.232C56.6052 120.477 56.4504 120.826 56.5751 121.148C56.5751 121.195 56.6654 121.226 56.7471 121.221C56.8417 121.221 56.9019 121.161 56.8804 121.109C56.7815 120.847 56.9062 120.563 57.2545 120.361C57.652 120.158 58.1022 120.082 58.5445 120.142C58.6391 120.142 58.7294 120.142 58.738 120.065C58.738 120.017 58.6907 119.974 58.609 119.966C58.0694 119.888 57.5192 119.982 57.0352 120.232Z" fill="#455A64"/>
<path d="M65.4933 116.138C65.4778 116.143 65.4615 116.143 65.446 116.138C65.446 116.138 65.446 116.138 65.446 116.108L65.532 115.678C65.532 115.678 65.532 115.657 65.532 115.648L65.5578 115.622L65.7083 115.536C65.7237 115.532 65.7401 115.532 65.7556 115.536C65.7724 115.531 65.7903 115.531 65.8072 115.536L67.037 116.246C67.0392 116.25 67.0404 116.254 67.0404 116.259C67.0404 116.263 67.0392 116.268 67.037 116.272C67.0396 116.276 67.041 116.282 67.041 116.287C67.041 116.292 67.0396 116.297 67.037 116.302L66.8822 116.392C66.8653 116.397 66.8475 116.397 66.8306 116.392C66.8138 116.397 66.7958 116.397 66.779 116.392L65.8416 115.85L65.79 116.1C65.79 116.1 65.79 116.1 65.7642 116.126C65.7458 116.13 65.7266 116.13 65.7083 116.126L65.4933 116.138Z" fill="#455A64"/>
<path d="M66.4565 115.584C66.4397 115.589 66.4217 115.589 66.4049 115.584C66.4029 115.579 66.4019 115.574 66.4019 115.569C66.4019 115.564 66.4029 115.558 66.4049 115.554L66.4952 115.124C66.4933 115.114 66.4933 115.104 66.4952 115.094L66.5167 115.068L66.6672 114.982C66.684 114.977 66.702 114.977 66.7188 114.982C66.7357 114.977 66.7535 114.977 66.7704 114.982L67.9959 115.691C67.9959 115.691 67.9959 115.691 67.9959 115.721C67.9978 115.725 67.9988 115.73 67.9988 115.734C67.9988 115.739 67.9978 115.743 67.9959 115.747L67.8411 115.838C67.8243 115.843 67.8063 115.843 67.7895 115.838H67.7379L66.8005 115.296L66.7446 115.575C66.7378 115.587 66.7272 115.596 66.7145 115.601C66.6976 115.606 66.6798 115.606 66.6629 115.601L66.4565 115.584Z" fill="#455A64"/>
<path d="M67.6605 114.81C67.6775 114.806 67.6951 114.806 67.7121 114.81C67.7289 114.805 67.7468 114.805 67.7637 114.81L67.9529 114.917C67.9551 114.921 67.9563 114.926 67.9563 114.93C67.9563 114.935 67.9551 114.939 67.9529 114.943C67.9552 114.948 67.9563 114.953 67.9563 114.958C67.9563 114.963 67.9552 114.969 67.9529 114.973L67.7766 115.077H67.725C67.7081 115.082 67.6902 115.082 67.6734 115.077L67.4842 114.969C67.4819 114.964 67.4807 114.959 67.4807 114.954C67.4807 114.949 67.4819 114.944 67.4842 114.939C67.4822 114.934 67.4811 114.929 67.4811 114.924C67.4811 114.919 67.4822 114.914 67.4842 114.909L67.6605 114.81ZM68.327 115.193C68.3429 115.184 68.3606 115.18 68.3786 115.18C68.3965 115.18 68.4142 115.184 68.4302 115.193L68.6151 115.3C68.6151 115.3 68.6366 115.3 68.6366 115.33C68.6355 115.337 68.633 115.342 68.6292 115.348C68.6255 115.353 68.6207 115.357 68.6151 115.36L68.4388 115.459C68.423 115.468 68.4052 115.472 68.3872 115.472C68.3691 115.472 68.3514 115.468 68.3356 115.459L68.1507 115.352C68.1507 115.352 68.1292 115.352 68.1292 115.322C68.1298 115.316 68.1322 115.31 68.136 115.305C68.1398 115.301 68.1449 115.297 68.1507 115.296L68.327 115.193Z" fill="#455A64"/>
<path d="M69.6299 114.81C69.614 114.818 69.5963 114.822 69.5783 114.822C69.5603 114.822 69.5426 114.818 69.5267 114.81L69.2988 114.681L68.7097 115.02H68.6581C68.6412 115.025 68.6234 115.025 68.6065 115.02L68.4732 114.943C68.4517 114.943 68.4431 114.922 68.4388 114.909C68.4345 114.895 68.4345 114.88 68.4388 114.866L68.2926 114.113C68.2888 114.099 68.2897 114.085 68.2951 114.071C68.3006 114.058 68.3103 114.047 68.3227 114.04L68.4689 113.954H68.5205H68.5678L69.3289 114.384L69.4923 114.29H69.5439H69.5955L69.7288 114.371C69.7345 114.373 69.7397 114.376 69.7435 114.381C69.7473 114.385 69.7497 114.391 69.7503 114.397C69.7503 114.397 69.7503 114.418 69.7288 114.427L69.5654 114.522L69.7976 114.655C69.7976 114.655 69.8191 114.655 69.7976 114.685C69.7999 114.69 69.8011 114.695 69.8011 114.7C69.8011 114.705 69.7999 114.711 69.7976 114.715L69.6299 114.81ZM69.058 114.543L68.6538 114.307L68.7355 114.737L69.058 114.543Z" fill="#455A64"/>
<path d="M69.1139 113.614C69.1103 113.605 69.1103 113.594 69.1139 113.584C69.1139 113.584 69.1139 113.584 69.1139 113.554L69.8277 113.124C69.8435 113.116 69.8613 113.111 69.8793 113.111C69.8974 113.111 69.9151 113.116 69.9309 113.124L70.0642 113.202C70.0642 113.202 70.0857 113.202 70.0857 113.232C70.0857 113.262 70.0857 113.253 70.0642 113.262L69.531 113.567L69.7546 113.722C69.7761 113.693 69.8023 113.669 69.832 113.649L69.9094 113.597C69.9815 113.557 70.0579 113.525 70.1373 113.503C70.2153 113.478 70.2963 113.463 70.3781 113.46C70.458 113.449 70.539 113.449 70.6189 113.46C70.6986 113.477 70.7753 113.506 70.8468 113.546C70.9146 113.579 70.9724 113.629 71.0145 113.692C71.0441 113.733 71.0564 113.784 71.0489 113.834C71.0415 113.887 71.0156 113.936 70.9758 113.971C70.9236 114.021 70.8659 114.064 70.8038 114.1C70.7231 114.146 70.6381 114.183 70.5501 114.212C70.4729 114.234 70.3937 114.248 70.3136 114.255C70.2421 114.262 70.1701 114.262 70.0986 114.255C70.0375 114.243 69.9782 114.223 69.9223 114.195C69.9223 114.195 69.9008 114.195 69.9008 114.165C69.9008 114.135 69.9008 114.143 69.9223 114.135L70.0771 114.044H70.1244H70.176C70.211 114.055 70.247 114.063 70.2835 114.066H70.3867L70.4813 114.036L70.5673 113.993C70.6404 113.95 70.6791 113.907 70.6834 113.855C70.6877 113.804 70.6576 113.765 70.5888 113.726C70.5261 113.691 70.454 113.676 70.3824 113.683C70.2995 113.685 70.2182 113.707 70.1459 113.748C70.1173 113.764 70.0899 113.783 70.0642 113.804C70.0512 113.817 70.0397 113.831 70.0298 113.847C70.0321 113.858 70.0321 113.87 70.0298 113.881C70.0215 113.894 70.0095 113.905 69.9954 113.911L69.8191 114.014H69.7675H69.7202L69.1139 113.614Z" fill="#455A64"/>
<path d="M48.676 126.867L48.2804 126.639L48.805 126.334L49.2006 126.562L48.676 126.867Z" fill="#455A64"/>
<path d="M49.4672 126.411L48.676 125.955L49.2006 125.65L49.9918 126.106L49.4672 126.411Z" fill="#455A64"/>
<path d="M50.2584 125.956L49.0716 125.268L49.5962 124.967L50.7873 125.65L50.2584 125.956Z" fill="#455A64"/>
<path d="M51.0496 125.5L49.4672 124.584L49.9961 124.279L51.5742 125.194L51.0496 125.5Z" fill="#455A64"/>
<path d="M86.817 103.363C86.7114 103.351 86.6045 103.367 86.5074 103.41L84.5337 104.546C84.4047 104.619 84.4391 104.756 84.6068 104.855L85.3292 105.285C85.4367 105.344 85.5554 105.379 85.6775 105.388C85.7289 105.395 85.7809 105.395 85.8323 105.388C85.8862 105.384 85.9387 105.369 85.9871 105.345L87.9608 104.21C88.0855 104.133 88.0554 104 87.8834 103.901L87.1653 103.471C87.0582 103.41 86.9395 103.374 86.817 103.363ZM85.656 105.298C85.6039 105.293 85.5539 105.275 85.5098 105.247L84.7874 104.817C84.6627 104.743 84.6369 104.636 84.7315 104.58L86.7052 103.445C86.7306 103.431 86.7583 103.422 86.7869 103.419H86.8342C86.8877 103.424 86.9392 103.442 86.9847 103.471L87.7028 103.901C87.8275 103.974 87.8533 104.081 87.763 104.133L85.7893 105.272C85.7477 105.292 85.7019 105.301 85.656 105.298Z" fill="#455A64"/>
<path d="M85.2303 104.456L86.0903 104.946L85.7807 105.126C85.7456 105.137 85.7083 105.137 85.6732 105.126L85.0411 104.761C84.9508 104.709 84.9293 104.628 84.9981 104.585L85.2303 104.456Z" fill="#455A64"/>
<path d="M85.3765 104.374L85.7463 104.159L86.5977 104.649L86.2236 104.864L85.3765 104.374Z" fill="#455A64"/>
<path d="M85.8925 104.077L86.258 103.862L87.1137 104.357L86.7439 104.572L85.8925 104.077Z" fill="#455A64"/>
<path d="M86.8299 103.6L87.4448 103.957C87.5566 104.021 87.5351 104.116 87.3803 104.202L87.2556 104.275L86.3956 103.78L86.6923 103.613C86.7132 103.601 86.7362 103.594 86.7598 103.592C86.7835 103.59 86.8073 103.592 86.8299 103.6Z" fill="#455A64"/>
<path d="M87.2427 103.423C87.3726 103.41 87.5027 103.445 87.6082 103.522L87.7415 103.6C87.8877 103.686 87.9694 103.78 87.9135 103.815L87.8232 103.875L87.1438 103.484L87.2427 103.423Z" fill="#455A64"/>
<path d="M81.7903 106.683L83.3211 105.354L84.1295 106.502L83.0717 106.214L81.7903 106.683Z" fill="#455A64"/>
<path d="M114.38 162.561V162.94C114.397 163.266 114.492 163.584 114.655 163.868C114.819 164.151 115.047 164.391 115.322 164.569L122.701 168.826C122.992 168.975 123.315 169.052 123.642 169.052C123.97 169.052 124.292 168.975 124.584 168.826L160.949 147.821C161.223 147.642 161.452 147.4 161.615 147.116C161.779 146.833 161.873 146.514 161.891 146.187V145.813C161.873 145.486 161.779 145.167 161.615 144.883C161.452 144.599 161.223 144.358 160.949 144.179L153.57 139.922C153.278 139.773 152.956 139.696 152.629 139.696C152.301 139.696 151.979 139.773 151.687 139.922L115.322 160.932C115.048 161.11 114.82 161.351 114.657 161.634C114.493 161.917 114.398 162.235 114.38 162.561Z" fill="#E58D26"/>
<path opacity="0.15" d="M161.056 144.265C161.448 144.562 161.405 144.996 160.932 145.267L124.567 166.277C124.276 166.429 123.953 166.508 123.625 166.504V169.05C123.954 169.058 124.28 168.981 124.571 168.826L160.932 147.821C161.205 147.641 161.433 147.399 161.597 147.116C161.76 146.832 161.855 146.514 161.874 146.187V145.813C161.857 145.511 161.776 145.217 161.634 144.949C161.493 144.682 161.296 144.449 161.056 144.265Z" fill="black"/>
<path opacity="0.3" d="M115.163 161.031C114.929 161.215 114.736 161.446 114.599 161.71C114.461 161.974 114.38 162.264 114.363 162.561V162.94C114.38 163.267 114.475 163.585 114.639 163.869C114.804 164.152 115.033 164.392 115.309 164.569L122.683 168.826C122.972 168.982 123.297 169.059 123.625 169.05V166.504C123.297 166.508 122.973 166.43 122.683 166.277L115.304 162.02C114.836 161.753 114.81 161.332 115.163 161.031Z" fill="black"/>
<path d="M126.08 158.347C126.138 158.314 126.203 158.296 126.27 158.296C126.326 158.297 126.382 158.305 126.437 158.317L130.307 159.401L130.393 159.431C130.405 159.436 130.414 159.445 130.421 159.456C130.428 159.466 130.432 159.478 130.432 159.491C130.432 159.491 130.432 159.53 130.393 159.547L129.817 159.878C129.767 159.91 129.709 159.927 129.649 159.93C129.608 159.937 129.566 159.937 129.525 159.93L129.017 159.783L127.805 160.484L128.058 160.777C128.076 160.797 128.085 160.823 128.084 160.85C128.084 160.88 128.054 160.91 127.994 160.944L127.418 161.276C127.388 161.294 127.354 161.303 127.319 161.301C127.283 161.303 127.247 161.294 127.216 161.276C127.196 161.265 127.179 161.248 127.168 161.228L125.285 158.992C125.264 158.965 125.252 158.932 125.25 158.898C125.25 158.859 125.281 158.825 125.341 158.79L126.08 158.347ZM127.336 159.925L128.076 159.495L126.609 159.065L127.336 159.925Z" fill="#455A64"/>
<path d="M129 156.662C129.211 156.541 129.436 156.447 129.671 156.382C129.903 156.321 130.141 156.285 130.38 156.275C130.616 156.266 130.851 156.287 131.081 156.339C131.302 156.386 131.516 156.461 131.718 156.563L131.894 156.662L132.049 156.752L132.199 156.838L132.363 156.937C132.521 157.03 132.657 157.156 132.763 157.307C132.841 157.423 132.881 157.562 132.874 157.702C132.856 157.853 132.793 157.995 132.694 158.111C132.559 158.267 132.398 158.396 132.216 158.493L130.987 159.203C130.949 159.225 130.906 159.235 130.862 159.233C130.82 159.235 130.778 159.225 130.742 159.203L127.792 157.505C127.757 157.483 127.74 157.461 127.74 157.431C127.741 157.416 127.746 157.401 127.755 157.389C127.765 157.377 127.777 157.368 127.792 157.363L129 156.662ZM130.853 157.04C130.675 156.947 130.475 156.903 130.274 156.913C130.073 156.922 129.878 156.986 129.71 157.096L129.245 157.367L130.965 158.369L131.451 158.085C131.834 157.866 131.86 157.655 131.524 157.436L131.348 157.328L131.184 157.234L131.025 157.143L130.853 157.04Z" fill="#455A64"/>
<path d="M132.298 154.757C132.509 154.636 132.734 154.542 132.969 154.477C133.202 154.416 133.442 154.38 133.683 154.37C133.917 154.363 134.151 154.385 134.379 154.434C134.601 154.48 134.815 154.555 135.016 154.658L135.196 154.757L135.347 154.847L135.497 154.933L135.665 155.032C135.821 155.127 135.956 155.253 136.061 155.402C136.141 155.517 136.181 155.657 136.172 155.797C136.158 155.949 136.096 156.092 135.996 156.206C135.861 156.361 135.7 156.491 135.519 156.589L134.285 157.298C134.248 157.32 134.207 157.33 134.164 157.328C134.121 157.331 134.077 157.32 134.04 157.298L131.09 155.6C131.076 155.593 131.064 155.582 131.055 155.57C131.046 155.557 131.04 155.542 131.038 155.527C131.04 155.511 131.045 155.497 131.054 155.485C131.063 155.473 131.076 155.463 131.09 155.458L132.298 154.757ZM134.151 155.135C133.973 155.042 133.773 154.998 133.572 155.008C133.371 155.018 133.176 155.081 133.008 155.191L132.543 155.462L134.263 156.464L134.753 156.18C135.136 155.961 135.158 155.75 134.827 155.531L134.65 155.423C134.594 155.393 134.538 155.363 134.487 155.329L134.323 155.238L134.151 155.135Z" fill="#455A64"/>
<path d="M137.471 151.79C137.507 151.768 137.549 151.758 137.591 151.76C137.635 151.757 137.678 151.768 137.716 151.79L138.202 152.069C138.216 152.075 138.227 152.084 138.236 152.097C138.244 152.109 138.249 152.123 138.249 152.138C138.249 152.153 138.245 152.168 138.236 152.181C138.228 152.194 138.216 152.205 138.202 152.211L137.398 152.65L139.737 154C139.771 154 139.789 154.043 139.789 154.073C139.787 154.088 139.782 154.103 139.773 154.115C139.764 154.127 139.751 154.136 139.737 154.142L139.139 154.486C139.103 154.508 139.061 154.518 139.019 154.516C138.975 154.518 138.932 154.508 138.894 154.486L136.555 153.136L135.751 153.6C135.712 153.62 135.67 153.63 135.626 153.63C135.584 153.63 135.543 153.62 135.506 153.6L135.02 153.321C134.986 153.299 134.968 153.278 134.968 153.247C134.97 153.232 134.975 153.218 134.984 153.206C134.994 153.194 135.006 153.184 135.02 153.179L137.471 151.79Z" fill="#455A64"/>
<path d="M139.036 152.246C138.891 152.156 138.766 152.04 138.666 151.902C138.584 151.79 138.543 151.653 138.55 151.515C138.569 151.364 138.63 151.222 138.727 151.106C138.867 150.945 139.034 150.81 139.221 150.706C139.439 150.582 139.671 150.487 139.913 150.422C140.144 150.361 140.38 150.327 140.619 150.319C140.844 150.314 141.07 150.337 141.289 150.388C141.495 150.433 141.695 150.504 141.883 150.599L142.313 150.831L142.704 151.067C142.849 151.157 142.974 151.273 143.074 151.411C143.156 151.523 143.197 151.66 143.19 151.798C143.181 151.957 143.119 152.109 143.014 152.228C142.876 152.391 142.708 152.525 142.519 152.624C142.302 152.752 142.07 152.85 141.827 152.916C141.596 152.976 141.36 153.01 141.122 153.015C140.896 153.021 140.671 152.998 140.451 152.947C140.245 152.901 140.046 152.83 139.857 152.736C139.724 152.667 139.591 152.59 139.427 152.508L139.036 152.246ZM141.827 151.545L141.655 151.433L141.457 151.313L141.246 151.196L141.061 151.102C140.98 151.06 140.893 151.028 140.803 151.007C140.713 150.985 140.621 150.973 140.528 150.973C140.431 150.973 140.334 150.986 140.24 151.012C140.14 151.038 140.043 151.077 139.952 151.128C139.874 151.169 139.805 151.226 139.75 151.295C139.71 151.342 139.688 151.401 139.685 151.463C139.686 151.521 139.706 151.577 139.741 151.622C139.787 151.68 139.842 151.73 139.905 151.768C139.957 151.808 140.011 151.843 140.068 151.876C140.133 151.915 140.197 151.958 140.27 151.996L140.477 152.112C140.539 152.149 140.604 152.182 140.67 152.211C140.837 152.294 141.021 152.338 141.208 152.34C141.41 152.343 141.608 152.288 141.78 152.181C141.969 152.074 142.055 151.966 142.046 151.854C142.036 151.789 142.011 151.728 141.973 151.674C141.935 151.62 141.885 151.576 141.827 151.545Z" fill="#455A64"/>
<path d="M144.14 149.322L144.299 149.421L144.514 149.545L144.734 149.674L144.91 149.765C144.986 149.804 145.067 149.835 145.151 149.855C145.239 149.88 145.33 149.895 145.422 149.898C145.519 149.897 145.615 149.885 145.71 149.863C145.817 149.838 145.92 149.796 146.015 149.739C146.097 149.697 146.169 149.64 146.23 149.571C146.267 149.529 146.293 149.479 146.308 149.425C146.321 149.384 146.321 149.341 146.308 149.3C146.289 149.264 146.266 149.231 146.239 149.201C146.215 149.175 146.198 149.144 146.187 149.111C146.187 149.111 146.213 149.064 146.265 149.034L146.862 148.69C146.893 148.675 146.927 148.668 146.961 148.668C146.995 148.668 147.029 148.675 147.06 148.69C147.197 148.763 147.31 148.873 147.387 149.008C147.45 149.123 147.47 149.257 147.443 149.386C147.406 149.534 147.333 149.672 147.232 149.786C147.097 149.937 146.937 150.064 146.759 150.16C146.545 150.284 146.315 150.378 146.075 150.44C145.845 150.503 145.609 150.538 145.37 150.543C145.143 150.549 144.916 150.526 144.695 150.474C144.49 150.432 144.291 150.361 144.106 150.263C143.973 150.199 143.839 150.121 143.676 150.04C143.513 149.958 143.401 149.876 143.276 149.795C143.13 149.711 143.004 149.596 142.906 149.459C142.828 149.344 142.788 149.207 142.794 149.068C142.809 148.917 142.869 148.775 142.966 148.659C143.103 148.497 143.269 148.363 143.457 148.264C143.661 148.147 143.879 148.056 144.106 147.993C144.331 147.929 144.561 147.887 144.794 147.868C145.014 147.854 145.235 147.865 145.452 147.903C145.645 147.932 145.831 147.995 146.002 148.088C146.014 148.093 146.024 148.101 146.032 148.112C146.039 148.122 146.044 148.135 146.045 148.148C146.045 148.16 146.04 148.173 146.033 148.183C146.025 148.193 146.014 148.2 146.002 148.204L145.405 148.552C145.365 148.578 145.319 148.593 145.271 148.595C145.22 148.589 145.17 148.579 145.121 148.565C145.065 148.547 145.007 148.534 144.949 148.526C144.877 148.517 144.805 148.517 144.734 148.526C144.648 148.533 144.563 148.548 144.48 148.569C144.378 148.6 144.279 148.643 144.188 148.698C144.104 148.74 144.03 148.8 143.973 148.874C143.935 148.921 143.914 148.978 143.912 149.038C143.918 149.097 143.942 149.153 143.981 149.197C144.03 149.244 144.083 149.285 144.14 149.322Z" fill="#455A64"/>
<path d="M147.03 146.251C147.087 146.218 147.153 146.2 147.219 146.2C147.276 146.202 147.332 146.209 147.387 146.221L151.257 147.305L151.343 147.335C151.373 147.335 151.386 147.369 151.386 147.395C151.386 147.421 151.386 147.434 151.343 147.451L150.771 147.782C150.719 147.813 150.66 147.831 150.599 147.834C150.559 147.839 150.518 147.839 150.478 147.834L149.971 147.688L148.754 148.388L149.008 148.681C149.026 148.701 149.035 148.727 149.034 148.754C149.034 148.784 149.004 148.814 148.943 148.849L148.367 149.184C148.336 149.198 148.302 149.206 148.268 149.206C148.234 149.206 148.2 149.198 148.169 149.184C148.148 149.171 148.13 149.154 148.118 149.132L146.239 146.896C146.216 146.87 146.204 146.836 146.204 146.802C146.204 146.763 146.23 146.729 146.29 146.69L147.03 146.251ZM148.285 147.829L149.025 147.399L147.559 146.969L148.285 147.829Z" fill="#455A64"/>
<path d="M149.98 144.549C150.171 144.439 150.373 144.348 150.582 144.278C150.774 144.212 150.973 144.171 151.175 144.153C151.371 144.139 151.568 144.154 151.76 144.196C151.953 144.239 152.139 144.311 152.31 144.411C152.498 144.502 152.649 144.653 152.74 144.841C152.77 144.911 152.78 144.988 152.771 145.064C152.761 145.139 152.731 145.211 152.684 145.271L154.336 145.572C154.358 145.574 154.38 145.582 154.4 145.593C154.43 145.593 154.443 145.628 154.443 145.654C154.443 145.679 154.443 145.692 154.4 145.71L153.781 146.066C153.731 146.102 153.67 146.12 153.609 146.118H153.467L151.983 145.847L151.553 146.088L152.53 146.651C152.564 146.651 152.581 146.694 152.581 146.724C152.58 146.739 152.574 146.754 152.565 146.766C152.556 146.778 152.544 146.788 152.53 146.793L151.932 147.137C151.895 147.159 151.854 147.169 151.811 147.167C151.768 147.17 151.725 147.159 151.687 147.137L148.737 145.439C148.723 145.432 148.711 145.422 148.703 145.409C148.694 145.396 148.69 145.381 148.69 145.366C148.69 145.35 148.695 145.335 148.703 145.323C148.712 145.31 148.723 145.299 148.737 145.292L149.98 144.549ZM150.84 145.645L151.36 145.34C151.462 145.291 151.547 145.213 151.605 145.116C151.639 145.039 151.605 144.961 151.467 144.888C151.35 144.817 151.212 144.79 151.076 144.811C150.938 144.831 150.805 144.877 150.685 144.948L150.169 145.249L150.84 145.645Z" fill="#455A64"/>
<path d="M154.108 142.166C154.146 142.147 154.189 142.136 154.232 142.136C154.276 142.136 154.318 142.147 154.357 142.166L154.839 142.446C154.853 142.451 154.865 142.461 154.874 142.473C154.883 142.485 154.889 142.5 154.89 142.515C154.89 142.545 154.89 142.566 154.839 142.588L154.035 143.052L156.378 144.402C156.392 144.409 156.404 144.419 156.412 144.432C156.421 144.445 156.425 144.46 156.425 144.475C156.425 144.49 156.42 144.505 156.412 144.517C156.403 144.529 156.392 144.538 156.378 144.544L155.78 144.893C155.741 144.91 155.699 144.918 155.656 144.918C155.613 144.918 155.57 144.91 155.531 144.893L153.192 143.538L152.388 144.002C152.351 144.022 152.309 144.032 152.267 144.033C152.224 144.033 152.181 144.022 152.143 144.002L151.657 143.723C151.643 143.716 151.632 143.705 151.624 143.692C151.615 143.68 151.61 143.665 151.609 143.65C151.61 143.635 151.615 143.621 151.624 143.609C151.632 143.597 151.643 143.587 151.657 143.581L154.108 142.166Z" fill="#455A64"/>
<path d="M120.4 160.82C119.243 161.486 119.243 162.566 120.4 163.228C121.047 163.556 121.762 163.728 122.488 163.728C123.213 163.728 123.928 163.556 124.575 163.228C125.728 162.566 125.728 161.486 124.575 160.82C123.928 160.491 123.213 160.32 122.488 160.32C121.762 160.32 121.047 160.491 120.4 160.82ZM123.84 161.607L123.066 162.037L123.84 162.467C123.872 162.476 123.9 162.496 123.92 162.523C123.94 162.549 123.951 162.582 123.951 162.615C123.951 162.648 123.94 162.681 123.92 162.708C123.9 162.734 123.872 162.754 123.84 162.764C123.761 162.804 123.673 162.825 123.584 162.825C123.495 162.825 123.408 162.804 123.328 162.764L122.55 162.334L121.776 162.764C121.697 162.804 121.609 162.825 121.52 162.825C121.431 162.825 121.344 162.804 121.264 162.764C121.232 162.754 121.204 162.734 121.184 162.708C121.164 162.681 121.154 162.648 121.154 162.615C121.154 162.582 121.164 162.549 121.184 162.523C121.204 162.496 121.232 162.476 121.264 162.467L122.038 162.037L121.264 161.607C121.232 161.597 121.204 161.578 121.184 161.551C121.164 161.524 121.154 161.492 121.154 161.458C121.154 161.425 121.164 161.393 121.184 161.366C121.204 161.339 121.232 161.32 121.264 161.31C121.344 161.27 121.431 161.249 121.52 161.249C121.609 161.249 121.697 161.27 121.776 161.31L122.55 161.74L123.328 161.31C123.408 161.27 123.495 161.249 123.584 161.249C123.673 161.249 123.761 161.27 123.84 161.31C123.881 161.315 123.919 161.335 123.944 161.368C123.97 161.4 123.982 161.441 123.978 161.482C123.973 161.523 123.952 161.561 123.92 161.587C123.888 161.612 123.847 161.624 123.806 161.62L123.84 161.607Z" fill="#455A64"/>
<path d="M128.226 132.711C128.178 131.706 127.894 130.727 127.397 129.852C126.899 128.978 126.202 128.234 125.362 127.68C124.528 127.19 123.776 127.168 123.242 127.516L121.286 128.617L125.392 135.699L127.332 134.598C127.873 134.302 128.217 133.652 128.226 132.711Z" fill="#37474F"/>
<path d="M123.328 128.832C124.167 129.388 124.863 130.132 125.36 131.006C125.858 131.88 126.143 132.859 126.192 133.863C126.192 135.712 124.876 136.443 123.285 135.519C122.447 134.964 121.751 134.219 121.253 133.345C120.756 132.471 120.471 131.492 120.422 130.488C120.434 128.639 121.737 127.899 123.328 128.832Z" fill="#455A64"/>
<path d="M122.331 131.606C122.331 130.883 122.761 130.552 123.315 130.87C123.613 131.085 123.856 131.368 124.024 131.694C124.192 132.021 124.281 132.382 124.283 132.749C124.283 133.472 123.853 133.799 123.298 133.485C123.002 133.268 122.76 132.986 122.592 132.66C122.424 132.333 122.335 131.973 122.331 131.606Z" fill="#263238"/>
<path opacity="0.15" d="M126.192 133.863C126.182 133.199 126.048 132.543 125.796 131.928L120.83 129.043C120.55 129.471 120.408 129.976 120.426 130.488C120.426 130.509 120.426 130.531 120.426 130.557L126.188 133.902C126.188 133.902 126.192 133.876 126.192 133.863Z" fill="black"/>
<path d="M107.638 148.445C106.587 148.524 105.533 148.335 104.576 147.894L77.486 132.281C75.8477 131.455 74.0073 129.314 73.8912 127.284L73.0613 107.973L74.5706 107.887L75.4048 127.203C75.4822 128.579 76.9227 130.307 78.1611 130.926L105.273 146.544C106.001 146.848 106.789 146.982 107.577 146.937C108.366 146.891 109.133 146.667 109.822 146.282L127.882 135.867C128.312 135.583 128.566 135.244 128.548 134.956C128.531 134.667 128.26 134.384 127.8 134.151L98.7796 117.304C97.1456 116.483 95.3138 114.337 95.1977 112.307L94.7935 101.596L96.3028 101.514L96.707 112.221C96.7844 113.606 98.2249 115.33 99.459 115.95L128.48 132.801C129.447 133.287 130.006 134.022 130.058 134.87C130.109 135.717 129.628 136.538 128.712 137.131L110.652 147.546C109.74 148.097 108.702 148.406 107.638 148.445Z" fill="#455A64"/>
<path d="M102.77 148.01C102.722 147.005 102.438 146.026 101.941 145.152C101.443 144.277 100.746 143.533 99.9062 142.979C99.072 142.489 98.3195 142.463 97.7906 142.816L95.8298 143.917L99.9363 150.999L101.876 149.898C102.409 149.601 102.77 148.952 102.77 148.01Z" fill="#37474F"/>
<path d="M97.8637 144.132C98.7039 144.686 99.4013 145.431 99.899 146.306C100.397 147.181 100.681 148.161 100.727 149.167C100.727 151.012 99.416 151.747 97.8207 150.818C96.9823 150.263 96.2865 149.518 95.7897 148.644C95.2929 147.77 95.009 146.791 94.9612 145.787C94.9741 143.942 96.2727 143.19 97.8637 144.132Z" fill="#455A64"/>
<path d="M96.8661 146.905C96.8661 146.183 97.2961 145.852 97.8508 146.17C98.149 146.384 98.3921 146.667 98.5603 146.993C98.7284 147.32 98.8168 147.682 98.8183 148.049C98.8183 148.767 98.3883 149.098 97.8379 148.78C97.5402 148.566 97.2972 148.284 97.1284 147.958C96.9596 147.633 96.8697 147.272 96.8661 146.905Z" fill="#263238"/>
<path d="M82.7406 136.465C82.6951 135.46 82.4132 134.481 81.9178 133.606C81.4224 132.731 80.7276 131.985 79.8897 131.429C79.0512 130.939 78.303 130.913 77.7698 131.262L75.809 132.358L79.9026 139.449L81.8462 138.348C82.388 138.056 82.732 137.406 82.7406 136.465Z" fill="#37474F"/>
<path d="M77.8515 132.582C78.6874 133.136 79.3813 133.879 79.8773 134.75C80.3732 135.622 80.6574 136.598 80.7067 137.6C80.7067 139.445 79.3866 140.18 77.7956 139.247C76.9578 138.691 76.2629 137.945 75.7675 137.07C75.2721 136.195 74.9902 135.216 74.9447 134.211C74.9576 132.38 76.2605 131.644 77.8515 132.582Z" fill="#455A64"/>
<path d="M76.8496 135.347C76.8496 134.629 77.2796 134.298 77.8343 134.616C78.1315 134.831 78.3739 135.114 78.5419 135.44C78.71 135.766 78.799 136.128 78.8018 136.495C78.8018 137.217 78.3718 137.544 77.8128 137.23C77.5168 137.013 77.2756 136.729 77.1084 136.402C76.9412 136.075 76.8526 135.714 76.8496 135.347Z" fill="#263238"/>
<path d="M69.8234 84.5723C69.5668 83.5887 69.6139 82.5505 69.9585 81.5942C70.3031 80.6379 70.9291 79.8083 71.7541 79.2145L89.7754 69.0278C91.4137 67.9528 93.2154 68.701 93.783 70.5715L95.0343 74.6264L93.7959 75.3488L92.45 71.2509C92.3952 71.0318 92.2868 70.8297 92.1346 70.6628C91.9824 70.496 91.7911 70.3695 91.5779 70.2949C91.3647 70.2203 91.1363 70.1998 90.9133 70.2353C90.6902 70.2709 90.4795 70.3612 90.3 70.4984L72.7517 80.4099C72.226 80.7953 71.826 81.3274 71.6018 81.9395C71.3777 82.5515 71.3394 83.2162 71.4918 83.8499L72.5496 87.7414L71.0747 88.6014L69.8234 84.5723Z" fill="#455A64"/>
<path d="M97.6874 104.112L73.4784 118.091L108.859 138.516L133.068 124.537L97.6874 104.112Z" fill="#E58D26"/>
<path opacity="0.5" d="M97.6874 104.112L73.4784 118.091L108.859 138.516L133.068 124.537L97.6874 104.112Z" fill="black"/>
<path d="M71.0747 88.6271L95.0343 74.6306L97.6874 104.111L73.4784 118.091L71.0747 88.6271Z" fill="#E58D26"/>
<path opacity="0.35" d="M71.0747 88.6271L95.0343 74.6306L97.6874 104.111L73.4784 118.091L71.0747 88.6271Z" fill="black"/>
<path d="M95.03 74.6306L97.6831 104.111L133.064 124.536L138.654 99.8071L95.03 74.6306ZM107.401 102.976C106.89 103.135 106.337 103.085 105.863 102.839C105.388 102.593 105.029 102.169 104.864 101.66L99.0161 86.4857C98.8875 86.2465 98.8114 85.9826 98.7929 85.7116C98.7743 85.4406 98.8139 85.1688 98.9088 84.9143C99.0037 84.6598 99.1518 84.4285 99.3433 84.2358C99.5347 84.0431 99.7651 83.8935 100.019 83.797C100.273 83.7004 100.544 83.6592 100.815 83.6759C101.087 83.6927 101.351 83.7671 101.591 83.8942C101.831 84.0213 102.041 84.1982 102.207 84.413C102.374 84.6278 102.492 84.8756 102.555 85.1398L108.403 100.315C108.618 100.8 108.635 101.351 108.448 101.849C108.261 102.347 107.887 102.752 107.405 102.976H107.401ZM118.448 108.171C117.937 108.332 117.384 108.284 116.909 108.038C116.433 107.792 116.075 107.369 115.911 106.859L110.08 91.6844C109.952 91.4459 109.876 91.1827 109.857 90.9124C109.838 90.6422 109.877 90.371 109.971 90.117C110.065 89.8629 110.212 89.6318 110.402 89.4389C110.592 89.2461 110.822 89.0959 111.074 88.9984C111.327 88.9009 111.598 88.8584 111.868 88.8735C112.139 88.8887 112.403 88.9613 112.643 89.0864C112.883 89.2115 113.094 89.3864 113.262 89.5993C113.429 89.8122 113.55 90.0583 113.615 90.3213L119.463 105.496C119.682 105.985 119.699 106.541 119.51 107.042C119.321 107.543 118.94 107.949 118.452 108.171H118.448ZM129.495 113.369C128.987 113.531 128.436 113.487 127.961 113.245C127.486 113.004 127.126 112.585 126.958 112.079L121.114 96.9046C120.989 96.6668 120.915 96.4052 120.899 96.137C120.882 95.8688 120.922 95.6001 121.016 95.3485C121.111 95.0969 121.257 94.8682 121.446 94.6773C121.636 94.4864 121.863 94.3376 122.114 94.2408C122.364 94.1441 122.633 94.1014 122.901 94.1157C123.169 94.1299 123.432 94.2008 123.671 94.3237C123.91 94.4465 124.12 94.6185 124.288 94.8284C124.455 95.0383 124.577 95.2813 124.644 95.5415L130.492 110.716C130.706 111.201 130.722 111.749 130.537 112.245C130.351 112.741 129.978 113.145 129.499 113.369H129.495Z" fill="#E58D26"/>
<path opacity="0.23" d="M95.03 74.6306L97.6831 104.111L133.064 124.536L138.654 99.8071L95.03 74.6306ZM107.401 102.976C106.89 103.135 106.337 103.085 105.863 102.839C105.388 102.593 105.029 102.169 104.864 101.66L99.0161 86.4857C98.8875 86.2465 98.8114 85.9826 98.7929 85.7116C98.7743 85.4406 98.8139 85.1688 98.9088 84.9143C99.0037 84.6598 99.1518 84.4285 99.3433 84.2358C99.5347 84.0431 99.7651 83.8935 100.019 83.797C100.273 83.7004 100.544 83.6592 100.815 83.6759C101.087 83.6927 101.351 83.7671 101.591 83.8942C101.831 84.0213 102.041 84.1982 102.207 84.413C102.374 84.6278 102.492 84.8756 102.555 85.1398L108.403 100.315C108.618 100.8 108.635 101.351 108.448 101.849C108.261 102.347 107.887 102.752 107.405 102.976H107.401ZM118.448 108.171C117.937 108.332 117.384 108.284 116.909 108.038C116.433 107.792 116.075 107.369 115.911 106.859L110.08 91.6844C109.952 91.4459 109.876 91.1827 109.857 90.9124C109.838 90.6422 109.877 90.371 109.971 90.117C110.065 89.8629 110.212 89.6318 110.402 89.4389C110.592 89.2461 110.822 89.0959 111.074 88.9984C111.327 88.9009 111.598 88.8584 111.868 88.8735C112.139 88.8887 112.403 88.9613 112.643 89.0864C112.883 89.2115 113.094 89.3864 113.262 89.5993C113.429 89.8122 113.55 90.0583 113.615 90.3213L119.463 105.496C119.682 105.985 119.699 106.541 119.51 107.042C119.321 107.543 118.94 107.949 118.452 108.171H118.448ZM129.495 113.369C128.987 113.531 128.436 113.487 127.961 113.245C127.486 113.004 127.126 112.585 126.958 112.079L121.114 96.9046C120.989 96.6668 120.915 96.4052 120.899 96.137C120.882 95.8688 120.922 95.6001 121.016 95.3485C121.111 95.0969 121.257 94.8682 121.446 94.6773C121.636 94.4864 121.863 94.3376 122.114 94.2408C122.364 94.1441 122.633 94.1014 122.901 94.1157C123.169 94.1299 123.432 94.2008 123.671 94.3237C123.91 94.4465 124.12 94.6185 124.288 94.8284C124.455 95.0383 124.577 95.2813 124.644 95.5415L130.492 110.716C130.706 111.201 130.722 111.749 130.537 112.245C130.351 112.741 129.978 113.145 129.499 113.369H129.495Z" fill="black"/>
<path d="M71.0747 88.6272L73.4784 118.091L108.859 138.516L114.449 113.791L71.0747 88.6272ZM85.0411 117.631C84.5302 117.789 83.9774 117.74 83.5026 117.493C83.0277 117.247 82.669 116.824 82.5041 116.315L76.6604 101.14C76.5345 100.902 76.4605 100.64 76.4432 100.371C76.426 100.103 76.4659 99.8334 76.5603 99.5812C76.6548 99.3291 76.8016 99.0998 76.9912 98.9085C77.1807 98.7173 77.4086 98.5684 77.6599 98.4716C77.9112 98.3749 78.1802 98.3326 78.4491 98.3474C78.7179 98.3622 78.9806 98.4339 79.2197 98.5576C79.4589 98.6814 79.6691 98.8545 79.8364 99.0654C80.0038 99.2764 80.1246 99.5204 80.1907 99.7814L86.0387 114.952C86.2594 115.44 86.2784 115.995 86.0915 116.497C85.9047 116.998 85.5271 117.406 85.0411 117.631ZM96.0878 122.825C95.5775 122.986 95.0242 122.938 94.5488 122.693C94.0734 122.447 93.7146 122.023 93.5508 121.514L87.72 106.339C87.5916 106.1 87.5155 105.837 87.4967 105.567C87.4779 105.297 87.5168 105.026 87.6108 104.771C87.7049 104.517 87.8519 104.286 88.0422 104.093C88.2324 103.901 88.4615 103.75 88.7143 103.653C88.9671 103.555 89.2377 103.513 89.5082 103.528C89.7787 103.543 90.0428 103.616 90.2831 103.741C90.5234 103.866 90.7343 104.041 90.9018 104.254C91.0693 104.467 91.1896 104.713 91.2546 104.976L97.0983 120.151C97.318 120.639 97.335 121.195 97.1456 121.697C96.9562 122.198 96.5758 122.604 96.0878 122.825ZM107.135 128.024C106.625 128.185 106.072 128.137 105.597 127.891C105.123 127.645 104.765 127.221 104.602 126.712L98.7538 111.538C98.6254 111.299 98.5493 111.036 98.5305 110.766C98.5117 110.495 98.5506 110.224 98.6446 109.97C98.7387 109.716 98.8857 109.485 99.0759 109.292C99.2662 109.099 99.4953 108.949 99.7481 108.852C100.001 108.754 100.271 108.712 100.542 108.727C100.812 108.742 101.077 108.814 101.317 108.94C101.557 109.065 101.768 109.24 101.936 109.452C102.103 109.665 102.223 109.912 102.288 110.174L108.132 125.349C108.353 125.836 108.372 126.391 108.185 126.892C107.998 127.393 107.62 127.8 107.135 128.024Z" fill="#E58D26"/>
<g opacity="0.15">
<path d="M71.0747 88.6272L73.4784 118.091L108.859 138.516L114.449 113.791L71.0747 88.6272ZM85.0411 117.631C84.5302 117.789 83.9774 117.74 83.5026 117.493C83.0277 117.247 82.669 116.824 82.5041 116.315L76.6604 101.14C76.5345 100.902 76.4605 100.64 76.4432 100.371C76.426 100.103 76.4659 99.8334 76.5603 99.5812C76.6548 99.3291 76.8016 99.0998 76.9912 98.9085C77.1807 98.7173 77.4086 98.5684 77.6599 98.4716C77.9112 98.3749 78.1802 98.3326 78.4491 98.3474C78.7179 98.3622 78.9806 98.4339 79.2197 98.5576C79.4589 98.6814 79.6691 98.8545 79.8364 99.0654C80.0038 99.2764 80.1246 99.5204 80.1907 99.7814L86.0387 114.952C86.2594 115.44 86.2784 115.995 86.0915 116.497C85.9047 116.998 85.5271 117.406 85.0411 117.631ZM96.0878 122.825C95.5775 122.986 95.0242 122.938 94.5488 122.693C94.0734 122.447 93.7146 122.023 93.5508 121.514L87.72 106.339C87.5916 106.1 87.5155 105.837 87.4967 105.567C87.4779 105.297 87.5168 105.026 87.6108 104.771C87.7049 104.517 87.8519 104.286 88.0422 104.093C88.2324 103.901 88.4615 103.75 88.7143 103.653C88.9671 103.555 89.2377 103.513 89.5082 103.528C89.7787 103.543 90.0428 103.616 90.2831 103.741C90.5234 103.866 90.7343 104.041 90.9018 104.254C91.0693 104.467 91.1896 104.713 91.2546 104.976L97.0983 120.151C97.318 120.639 97.335 121.195 97.1456 121.697C96.9562 122.198 96.5758 122.604 96.0878 122.825ZM107.135 128.024C106.625 128.185 106.072 128.137 105.597 127.891C105.123 127.645 104.765 127.221 104.602 126.712L98.7538 111.538C98.6254 111.299 98.5493 111.036 98.5305 110.766C98.5117 110.495 98.5506 110.224 98.6446 109.97C98.7387 109.716 98.8857 109.485 99.0759 109.292C99.2662 109.099 99.4953 108.949 99.7481 108.852C100.001 108.754 100.271 108.712 100.542 108.727C100.812 108.742 101.077 108.814 101.317 108.94C101.557 109.065 101.768 109.24 101.936 109.452C102.103 109.665 102.223 109.912 102.288 110.174L108.132 125.349C108.353 125.836 108.372 126.391 108.185 126.892C107.998 127.393 107.62 127.8 107.135 128.024Z" fill="black"/>
</g>
<path d="M114.445 113.791L138.654 99.8115L133.068 124.541L108.859 138.516L114.445 113.791Z" fill="#E58D26"/>
<path opacity="0.4" d="M114.445 113.791L138.654 99.8115L133.068 124.541L108.859 138.516L114.445 113.791Z" fill="black"/>
<path d="M123.165 60.4063L120.37 62.0446L120.379 53.5779L118.684 52.6018L111.013 57.0308L111 67.4755L106.528 70.0082L116.539 76.5012L124.859 61.3824L123.165 60.4063Z" fill="#37474F"/>
<path d="M112.707 58.0069L112.694 68.4516L108.222 70.9886L116.539 76.5012L124.859 61.3824L120.366 64.0226L120.379 53.5779L112.707 58.0069Z" fill="#455A64"/>
<path d="M111.013 57.0308L112.707 58.0069L112.694 68.4516L111 67.4755L111.013 57.0308Z" fill="#263238"/>
<path d="M76.3551 66.9809L100.598 52.9844L98.5775 23.8218L76.3551 36.653V66.9809Z" fill="#E58D26"/>
<path opacity="0.6" d="M76.3551 66.9809L100.598 52.9844L98.5775 23.8218L76.3551 36.653V66.9809Z" fill="white"/>
<path d="M76.3551 36.6532V34.3183L70.2921 33.153L92.5145 20.3218L94.5355 23.822H98.5775L76.3551 36.6532Z" fill="#E58D26"/>
<path opacity="0.3" d="M76.3551 36.6532V34.3183L70.2921 33.153L92.5145 20.3218L94.5355 23.822H98.5775L76.3551 36.6532Z" fill="white"/>
<path d="M92.5145 20.3218V27.3222L94.5355 26.1569V23.822L92.5145 20.3218Z" fill="#E58D26"/>
<path opacity="0.1" d="M92.5145 20.3218V27.3222L94.5355 26.1569V23.822L92.5145 20.3218Z" fill="black"/>
<path d="M98.5775 23.8218H94.5355V26.1567L98.5775 23.8218Z" fill="#E58D26"/>
<path opacity="0.2" d="M98.5775 23.8218H94.5355V26.1567L98.5775 23.8218Z" fill="black"/>
<path d="M70.2921 33.1528L68.2711 62.3154L76.3551 66.9809V36.653V34.3181L70.2921 33.1528Z" fill="#E58D26"/>
<path opacity="0.1" d="M70.2921 33.1528L68.2711 62.3154L76.3551 66.9809V36.653V34.3181L70.2921 33.1528Z" fill="black"/>
<path d="M76.3551 34.3181L72.3131 64.646L76.3551 66.9809V34.3181Z" fill="#E58D26"/>
<path opacity="0.2" d="M76.3551 34.3181L72.3131 64.646L76.3551 66.9809V34.3181Z" fill="black"/>
<path d="M76.3551 66.981L72.6485 62.1177L68.2711 62.3155L76.3551 66.981Z" fill="#E58D26"/>
<path d="M76.8453 32.8433C76.8453 33.2389 77.1205 33.4023 77.4645 33.2045C77.6456 33.0859 77.7963 32.9265 77.9046 32.739C78.0129 32.5516 78.0757 32.3414 78.088 32.1252C78.088 31.7296 77.8085 31.5662 77.4645 31.764C77.284 31.8829 77.134 32.0425 77.0264 32.23C76.9189 32.4174 76.8568 32.6275 76.8453 32.8433Z" fill="#37474F"/>
<path d="M85.1142 28.1778C85.1142 28.5734 85.3937 28.7368 85.7377 28.5347C85.9189 28.4173 86.0698 28.2587 86.1782 28.0719C86.2865 27.8851 86.3492 27.6753 86.3612 27.4597C86.3612 27.0641 86.0817 26.9007 85.7377 27.0985C85.5564 27.2169 85.4055 27.3763 85.2972 27.5638C85.1889 27.7513 85.1262 27.9616 85.1142 28.1778Z" fill="#37474F"/>
<path d="M77.4645 32.3918C77.4101 32.3907 77.3583 32.3686 77.3198 32.3301C77.2813 32.2916 77.2592 32.2398 77.2581 32.1854V27.0899C77.2581 24.8668 79.1587 21.9643 81.4979 20.6141C82.7879 19.8616 84.0349 19.7154 84.8906 20.2099C85.5743 20.6012 85.9484 21.3666 85.9484 22.3599V27.5199C85.9473 27.575 85.9246 27.6275 85.8852 27.6661C85.8458 27.7047 85.7929 27.7263 85.7377 27.7263C85.683 27.7263 85.6305 27.7045 85.5918 27.6658C85.5531 27.6271 85.5313 27.5746 85.5313 27.5199V22.3599C85.5313 21.4999 85.2346 20.8807 84.6713 20.5625C83.9489 20.1325 82.861 20.2916 81.6957 20.9667C79.4726 22.2567 77.6623 24.9915 77.6623 27.0813V32.1854C77.6613 32.2384 77.6404 32.289 77.6038 32.3273C77.5671 32.3655 77.5174 32.3886 77.4645 32.3918Z" fill="#37474F"/>
<path d="M82.99 36.3436C82.99 36.7392 83.2695 36.8983 83.6135 36.7005C83.7947 36.583 83.9456 36.4244 84.054 36.2376C84.1623 36.0508 84.225 35.8411 84.237 35.6255C84.237 35.2299 83.9575 35.0665 83.6135 35.2643C83.4322 35.3827 83.2813 35.542 83.173 35.7295C83.0647 35.917 83.002 36.1274 82.99 36.3436Z" fill="#455A64"/>
<path d="M91.2718 31.6781C91.2718 32.0737 91.5513 32.2328 91.8953 32.035C92.0765 31.9175 92.2274 31.7589 92.3358 31.5721C92.4441 31.3853 92.5068 31.1756 92.5188 30.96C92.5188 30.5601 92.2393 30.401 91.8953 30.5988C91.7135 30.7167 91.5622 30.8759 91.4539 31.0635C91.3455 31.2511 91.2831 31.4617 91.2718 31.6781Z" fill="#455A64"/>
<path d="M83.6221 35.892C83.5689 35.8909 83.5181 35.8693 83.4805 35.8316C83.4428 35.7939 83.4211 35.7432 83.42 35.6899V30.5858C83.42 28.367 85.3206 25.4645 87.6598 24.1358C88.9498 23.3833 90.1968 23.2371 91.0525 23.7316C91.7319 24.1229 92.106 24.8883 92.106 25.8816V31.0416C92.1066 31.0691 92.1017 31.0964 92.0916 31.1219C92.0815 31.1475 92.0664 31.1707 92.0471 31.1903C92.0279 31.21 92.005 31.2256 91.9796 31.2362C91.9543 31.2468 91.9271 31.2523 91.8996 31.2523C91.872 31.2523 91.8446 31.2469 91.819 31.2363C91.7934 31.2257 91.7702 31.2102 91.7507 31.1906C91.7311 31.171 91.7156 31.1478 91.705 31.1222C91.6944 31.0967 91.6889 31.0693 91.6889 31.0416V25.8816C91.6889 25.0216 91.3965 24.4067 90.8289 24.0885C90.1065 23.6585 89.0229 23.8176 87.8533 24.4927C85.6302 25.7827 83.8242 28.5175 83.8242 30.603V35.6899C83.8221 35.7428 83.8002 35.793 83.7627 35.8305C83.7252 35.8679 83.6751 35.8899 83.6221 35.892Z" fill="#455A64"/>
<path d="M166.513 52.503C165.262 55.1948 163.12 59.6496 161.947 62.1178L157.354 56.7084H153.484C153.484 56.7084 158.128 66.5984 160.897 68.9118C161.114 69.1152 161.37 69.2723 161.649 69.3734C161.929 69.4745 162.226 69.5175 162.523 69.4998C162.819 69.4821 163.109 69.404 163.375 69.2704C163.64 69.1367 163.876 68.9503 164.066 68.7226C165.195 67.3582 166.233 65.9218 167.175 64.4226C169.368 61.0342 170.349 59.5722 170.349 59.5722L173.109 47.9622C170.71 47.7816 168.25 48.7663 166.513 52.503Z" fill="#FFA8A7"/>
<path d="M173.569 47.9493C172.095 47.8934 170.491 47.7085 169.085 48.9383C167.74 50.1124 166.688 51.585 166.014 53.2383C165.064 55.4743 163.594 58.308 163.594 58.308C164.35 59.4077 165.279 60.3778 166.346 61.1804C167.308 61.9239 168.448 62.4027 169.652 62.5693L173.569 47.9493Z" fill="#E58D26"/>
<path opacity="0.45" d="M173.569 47.9493C172.095 47.8934 170.491 47.7085 169.085 48.9383C167.74 50.1124 166.688 51.585 166.014 53.2383C165.064 55.4743 163.594 58.308 163.594 58.308C164.35 59.4077 165.279 60.3778 166.346 61.1804C167.308 61.9239 168.448 62.4027 169.652 62.5693L173.569 47.9493Z" fill="black"/>
<path d="M161.947 62.1177C162.464 62.7246 162.937 63.3685 163.361 64.0441C163.361 64.0441 162.867 62.2209 162.196 61.5974L161.947 62.1177Z" fill="#F28F8F"/>
<path d="M152.336 49.5231L152.702 49.1404C152.758 49.0949 152.825 49.0634 152.896 49.0484C152.967 49.0335 153.04 49.0356 153.11 49.0544L157.556 49.8112C157.782 49.8618 157.993 49.9606 158.177 50.1009C158.36 50.2412 158.511 50.4197 158.618 50.6239L162.617 59.3142C162.663 59.384 162.687 59.4654 162.687 59.5486C162.687 59.6318 162.663 59.7132 162.617 59.7829L162.239 60.1785C162.18 60.2279 162.11 60.2616 162.035 60.2766C161.96 60.2917 161.882 60.2875 161.809 60.2645L157.38 59.512C157.154 59.4608 156.943 59.3612 156.759 59.2201C156.576 59.0791 156.425 58.8999 156.318 58.695L152.319 50.0047C152.22 49.7897 152.22 49.6177 152.336 49.5231Z" fill="#455A64"/>
<path d="M162.239 59.7054L158.24 51.0108C158.132 50.8069 157.981 50.6287 157.798 50.4884C157.614 50.3482 157.403 50.2491 157.178 50.1981L152.732 49.4499C152.302 49.3811 152.13 49.6305 152.302 50.0132L156.301 58.7035C156.408 58.9084 156.559 59.0875 156.742 59.2286C156.925 59.3696 157.137 59.4692 157.363 59.5205L161.809 60.273C162.222 60.3375 162.415 60.0838 162.239 59.7054Z" fill="#263238"/>
<path d="M157.677 50.4003C157.918 50.5503 158.114 50.7628 158.244 51.0152L162.243 59.7012C162.286 59.7695 162.309 59.8485 162.309 59.9291C162.309 60.0097 162.286 60.0887 162.243 60.157L162.6 59.7872C162.645 59.7179 162.668 59.6373 162.668 59.555C162.668 59.4727 162.645 59.3921 162.6 59.3228L158.601 50.6325C158.481 50.3957 158.3 50.1952 158.077 50.052L157.677 50.4003Z" fill="#37474F"/>
<path d="M154.439 58.1189C152.598 56.0076 152.65 53.3631 153.497 52.5977L154.056 53.8189C154.056 53.8189 156.873 54.4467 158.227 54.3435C159.582 54.2403 160.687 53.9135 161.056 54.1801C161.843 54.7348 162.071 57.0912 159.818 57.9512C157.905 58.6779 154.439 58.1189 154.439 58.1189Z" fill="#FFA8A7"/>
<path d="M186.796 127.499C185.605 128.14 184.156 128.088 182.746 127.499L182.157 119.794L186.796 120.4V127.499Z" fill="#FFA8A7"/>
<path d="M172.576 122.894C171.574 125.065 169.76 124.463 167.717 123.074L168.078 115.334H173.002L172.576 122.894Z" fill="#FFA8A7"/>
<path d="M178.119 134.792C177.998 135.183 178.016 135.604 178.171 135.983C178.325 136.224 179.211 136.985 180.819 137.097C182.354 137.209 183.726 137.002 184.625 136.43C185.524 135.858 185.962 135.226 186.048 134.354C186.134 133.481 186.048 132.634 186.452 131.958C186.857 131.283 187.45 130.638 187.583 130.303C187.742 129.72 187.742 129.105 187.583 128.523L178.119 134.792Z" fill="#263238"/>
<path d="M182.32 127.16C182.296 127.49 182.234 127.816 182.135 128.131C181.898 128.808 181.582 129.455 181.193 130.058C180.999 130.372 180.785 130.674 180.553 130.961C180.088 131.511 179.512 131.963 179.022 132.496C178.496 132.994 178.16 133.66 178.072 134.379C178.007 135.583 179.314 135.992 180.321 136.172C181.408 136.362 182.525 136.306 183.589 136.009C184.147 135.862 184.651 135.558 185.042 135.133C185.432 134.707 185.692 134.179 185.79 133.61C185.846 133.274 185.825 132.93 185.868 132.595C186.002 131.827 186.322 131.103 186.801 130.488C187.081 130.134 187.322 129.75 187.519 129.344C187.833 128.596 187.583 127.757 187.381 127.018C187.209 126.377 187.011 125.65 186.788 125.728C186.802 125.859 186.782 125.992 186.732 126.115C186.658 126.233 186.599 126.36 186.556 126.493C186.51 126.663 186.45 126.828 186.375 126.988C186.262 127.236 186.074 127.442 185.837 127.577C185.837 127.147 185.807 126.669 185.794 126.214C185.805 126.073 185.769 125.932 185.691 125.814C185.584 125.716 185.448 125.657 185.304 125.646C184.46 125.443 183.59 125.372 182.724 125.435C182.659 125.433 182.595 125.445 182.535 125.471C182.475 125.497 182.422 125.536 182.38 125.586C182.328 125.679 182.307 125.786 182.32 125.891C182.343 126.314 182.343 126.737 182.32 127.16Z" fill="#37474F"/>
<path d="M181.03 130.29C181.46 129.955 182.483 129.95 183.034 130.01C183.592 130.059 184.128 130.247 184.595 130.557C184.663 130.606 184.747 130.63 184.831 130.624C184.915 130.617 184.995 130.581 185.055 130.522C185.089 130.488 185.116 130.447 185.133 130.401C185.15 130.356 185.158 130.307 185.154 130.258C185.151 130.21 185.137 130.163 185.114 130.12C185.091 130.077 185.059 130.04 185.02 130.01C184.507 129.631 183.898 129.405 183.262 129.357C181.912 129.262 181.516 129.494 181.516 129.494C181.516 129.494 180.905 129.907 181.03 130.29Z" fill="#F5F5F5"/>
<path d="M180.007 131.541C180.574 131.21 181.675 131.257 182.225 131.313C182.773 131.371 183.297 131.571 183.743 131.894C183.812 131.944 183.896 131.967 183.981 131.96C184.065 131.953 184.144 131.916 184.203 131.855C184.239 131.822 184.267 131.781 184.285 131.735C184.303 131.689 184.311 131.64 184.308 131.591C184.304 131.542 184.29 131.495 184.266 131.452C184.242 131.409 184.209 131.372 184.169 131.343C183.648 130.948 183.027 130.705 182.376 130.643C181.026 130.548 180.656 130.823 180.656 130.823C180.501 130.887 180.362 130.984 180.25 131.108C180.137 131.233 180.054 131.381 180.007 131.541Z" fill="#F5F5F5"/>
<path d="M183.808 128.084C183.239 127.981 182.653 128.03 182.109 128.226C181.873 128.359 181.714 128.733 181.869 128.828C182.346 128.637 182.863 128.567 183.374 128.621C183.88 128.672 184.375 128.809 184.836 129.026C184.952 129.077 185.089 129.146 185.21 129.215C185.247 129.234 185.288 129.246 185.329 129.249C185.371 129.253 185.413 129.248 185.453 129.235C185.493 129.223 185.53 129.202 185.562 129.175C185.594 129.148 185.621 129.115 185.64 129.077C185.673 129.01 185.679 128.933 185.658 128.861C185.636 128.789 185.588 128.728 185.524 128.69C185.001 128.369 184.416 128.162 183.808 128.084Z" fill="#F5F5F5"/>
<path d="M159.65 127.847C159.534 128.199 159.555 128.582 159.711 128.918C159.861 129.232 161.499 130.157 163.71 130.006C165.347 129.893 166.924 129.342 168.276 128.411C169.136 127.852 169.996 127.749 171.088 127.684C172.181 127.62 173.621 127.078 173.858 126.566C173.983 126.108 173.971 125.624 173.823 125.173L159.65 127.847Z" fill="#263238"/>
<path d="M168.53 121.054L167.958 120.83C167.857 120.779 167.741 120.766 167.631 120.796C167.489 120.847 167.433 121.015 167.395 121.161C167.343 121.487 167.263 121.808 167.154 122.12C166.991 122.374 166.781 122.595 166.535 122.769C165.987 123.21 165.395 123.592 164.767 123.909C164.045 124.296 163.34 124.597 162.592 124.932C161.843 125.268 160.824 125.483 160.231 125.887C159.371 126.472 159.251 127.938 160.231 128.518C161.091 129.017 163.323 129.559 165.675 128.892C166.965 128.531 168.375 127.172 170.056 127.031C171.127 126.949 173.148 126.648 173.836 125.835C174.09 125.474 173.75 124.334 173.475 123.35C173.17 122.27 173.045 120.589 172.697 120.684C172.671 121.041 172.361 121.251 172.172 121.544C172.024 121.821 171.896 122.108 171.789 122.404C171.682 122.7 171.487 122.957 171.23 123.139C171.102 123.227 170.948 123.269 170.792 123.261C170.637 123.252 170.489 123.193 170.37 123.092C170.056 122.765 170.241 122.193 170.013 121.802C169.828 121.554 169.562 121.379 169.261 121.307L168.53 121.054Z" fill="#37474F"/>
<path d="M165.765 123.341C165.843 123.194 165.956 123.069 166.094 122.977C166.232 122.884 166.391 122.828 166.556 122.812C167.042 122.722 167.902 123.079 168.435 123.522C168.486 123.563 168.527 123.615 168.552 123.676C168.578 123.736 168.588 123.802 168.582 123.867C168.576 123.932 168.554 123.995 168.518 124.049C168.482 124.104 168.433 124.149 168.375 124.18C168.303 124.219 168.221 124.236 168.139 124.227C168.057 124.217 167.981 124.183 167.919 124.128C167.331 123.595 166.558 123.313 165.765 123.341Z" fill="#F5F5F5"/>
<path d="M164.26 124.184C164.366 124.034 164.507 123.912 164.67 123.829C164.833 123.745 165.014 123.701 165.197 123.702C165.946 123.737 166.665 124.006 167.253 124.472C167.302 124.511 167.34 124.562 167.365 124.62C167.39 124.678 167.4 124.741 167.395 124.804C167.39 124.866 167.369 124.927 167.336 124.98C167.302 125.033 167.256 125.077 167.201 125.108C167.133 125.146 167.056 125.162 166.979 125.153C166.902 125.145 166.829 125.112 166.771 125.061C166.446 124.735 166.051 124.487 165.616 124.335C165.181 124.183 164.718 124.131 164.26 124.184Z" fill="#F5F5F5"/>
<path d="M162.592 124.945C162.714 124.808 162.864 124.699 163.031 124.625C163.199 124.551 163.38 124.513 163.563 124.515C164.286 124.558 164.976 124.831 165.533 125.293C165.582 125.333 165.62 125.384 165.645 125.442C165.67 125.499 165.68 125.562 165.675 125.625C165.67 125.688 165.649 125.748 165.616 125.801C165.582 125.854 165.536 125.898 165.481 125.93C165.413 125.965 165.335 125.98 165.258 125.971C165.181 125.961 165.109 125.929 165.051 125.878C164.742 125.542 164.359 125.282 163.932 125.12C163.505 124.958 163.046 124.898 162.592 124.945Z" fill="#F5F5F5"/>
<path d="M186.19 69.4965C186.465 77.9288 186.444 98.3065 186.444 98.3065C186.534 99.3557 186.96 101.51 187.304 105.707C187.76 111.172 186.775 123.182 186.775 123.182C186.081 123.484 185.333 123.642 184.576 123.647C183.819 123.651 183.069 123.502 182.372 123.208C182.372 123.208 179.74 106.107 178.923 100.706C178.188 95.9759 176.747 85.2947 176.747 85.2947L175.083 99.1579C175.311 101.467 175.255 103.795 174.915 106.089C174.528 108.575 172.808 118.792 172.808 118.792C171.196 119.197 169.501 119.133 167.924 118.607C167.924 118.607 167.765 100.904 167.717 98.6032C167.67 95.9759 168.883 67.4153 168.883 67.4153L186.19 69.4965Z" fill="#37474F"/>
<path d="M176.73 85.2947L175.483 78.3846C175.483 78.3846 172.043 78.0836 170.117 76.1572C170.117 76.1572 170.456 78.0449 174.804 79.1672L176.046 86.159L175.066 99.145L176.73 85.2947Z" fill="#263238"/>
<path d="M169.308 54.4424C169.678 51.742 170.035 48.1128 174.219 47.9451L179.62 48.2031C180.948 48.5514 186.117 49.162 186.117 49.162L186.216 60.8752C186.216 60.8752 186.543 69.3204 186.444 73.8397C182.574 76.2907 174.167 77.0862 168.882 73.0743C168.723 69.3462 168.938 57.117 169.308 54.4424Z" fill="#FAFAFA"/>
<path d="M170 34.0517C169.638 34.6913 169.411 35.399 169.334 36.1303C169.257 36.8616 169.332 37.601 169.554 38.302C169.776 39.0031 170.14 39.6508 170.624 40.2046C171.108 40.7585 171.701 41.2065 172.365 41.5208L171.394 42.1916L181.103 43.0516L180.978 45.3908C181.412 45.2729 181.783 44.9926 182.015 44.6082C182.363 43.9847 183.305 40.1577 183.305 40.1577C184.216 38.0679 184.663 35.9179 184.01 35.2041C183.754 34.9211 183.415 34.7256 183.042 34.6451L184.332 33.9958C184.276 33.8679 184.194 33.7527 184.092 33.6572C183.99 33.5616 183.87 33.4878 183.738 33.44C183.607 33.3921 183.467 33.3714 183.328 33.379C183.188 33.3866 183.052 33.4223 182.926 33.4841C182.817 33.5398 182.718 33.614 182.634 33.7034C182.667 33.562 182.688 33.4182 182.698 33.2734C182.742 32.8469 182.64 32.4183 182.41 32.0565C182.225 31.8134 181.992 31.6101 181.727 31.4588C180.634 30.7751 179.34 30.5214 178.123 30.0914C177.435 29.8463 176.769 29.5453 176.089 29.2701C175.648 29.0493 175.152 28.9598 174.662 29.0121C174.414 29.0532 174.193 29.1909 174.047 29.3949C173.901 29.5989 173.842 29.8525 173.883 30.1C173.616 29.8575 173.284 29.6992 172.928 29.6449C172.571 29.5906 172.207 29.6427 171.88 29.7947C171.571 29.9226 171.311 30.1442 171.135 30.4281C170.959 30.712 170.876 31.0439 170.899 31.3771C170.459 31.2675 169.994 31.3131 169.583 31.5061C169.38 31.6039 169.211 31.76 169.097 31.9546C168.982 32.1491 168.929 32.3732 168.943 32.5983C169.112 33.1927 169.487 33.7078 170 34.0517Z" fill="#37474F"/>
<path d="M176.837 35.4192C177.732 35.3117 178.618 35.1655 179.503 35.0279C179.543 35.0163 179.584 35.0129 179.625 35.0181C179.666 35.0233 179.705 35.0369 179.74 35.058C179.778 35.0933 179.804 35.1401 179.813 35.1913C180.398 36.9113 180.381 38.7388 180.845 40.4717C180.888 40.6308 180.987 40.9017 181.176 40.9017C181.52 40.9404 181.757 40.6351 181.903 40.3685L182.234 39.7708C182.303 39.6591 182.385 39.5565 182.479 39.4655C182.909 39.0828 184.126 38.6055 184.698 39.9213C185.27 41.2371 184.044 43.0087 183.055 43.2839C181.335 43.7612 181.125 42.6647 181.125 42.6647L180.798 48.7707C179.284 50.3531 174.309 49.8027 175.294 48.4267L175.358 46.5691C174.6 46.6662 173.833 46.6807 173.071 46.6121C171.832 46.3799 171.084 45.3737 170.749 44.0321C170.211 41.8477 170.271 39.1774 170.693 35.8621C170.744 35.4691 170.847 35.0846 170.998 34.7183C172.74 35.6901 174.859 35.6557 176.837 35.4192Z" fill="#FFA8A7"/>
<path d="M175.358 46.5905C175.358 46.5905 178.158 46.1218 179.147 45.6359C179.728 45.3554 180.21 44.9057 180.531 44.3459C180.366 44.9095 180.089 45.4343 179.718 45.8896C178.979 46.7754 175.337 47.3258 175.337 47.3258L175.358 46.5905Z" fill="#F28F8F"/>
<path d="M175.758 39.7019C175.759 39.8192 175.794 39.9336 175.86 40.0309C175.925 40.1282 176.018 40.2041 176.126 40.2492C176.235 40.2942 176.354 40.3064 176.469 40.2842C176.584 40.262 176.69 40.2065 176.774 40.1244C176.858 40.0424 176.916 39.9375 176.94 39.8228C176.965 39.7081 176.955 39.5887 176.912 39.4795C176.87 39.3703 176.796 39.2761 176.7 39.2086C176.604 39.141 176.49 39.1032 176.373 39.0999C176.212 39.0987 176.057 39.1614 175.942 39.2741C175.826 39.3869 175.76 39.5407 175.758 39.7019Z" fill="#263238"/>
<path d="M176.588 37.2164L177.839 37.7539C177.908 37.5836 177.908 37.3933 177.84 37.2227C177.772 37.0521 177.641 36.9144 177.474 36.838C177.391 36.8027 177.302 36.7844 177.212 36.7844C177.122 36.7844 177.033 36.8026 176.95 36.838C176.867 36.8734 176.793 36.9251 176.73 36.9902C176.668 37.0552 176.62 37.1322 176.588 37.2164Z" fill="#263238"/>
<path d="M176.481 42.9485L174.52 43.615C174.558 43.7459 174.621 43.8679 174.707 43.9737C174.793 44.0794 174.899 44.1668 175.02 44.2306C175.14 44.2944 175.272 44.3333 175.408 44.345C175.544 44.3567 175.68 44.341 175.81 44.2987C176.075 44.2048 176.293 44.0114 176.418 43.7594C176.544 43.5074 176.566 43.2166 176.481 42.9485Z" fill="#B16668"/>
<path d="M175.814 44.29C175.981 44.2323 176.131 44.1335 176.249 44.0027C176.368 43.872 176.452 43.7135 176.493 43.5418C176.363 43.4796 176.219 43.4514 176.074 43.4597C175.93 43.468 175.79 43.5125 175.667 43.5893C175.545 43.666 175.444 43.7724 175.373 43.8987C175.302 44.0249 175.265 44.1669 175.264 44.3115C175.445 44.3581 175.637 44.3506 175.814 44.29Z" fill="#F28F8F"/>
<path d="M170.787 37.7197L172.034 37.2424C172.005 37.1594 171.959 37.0834 171.899 37.0189C171.839 36.9544 171.767 36.9028 171.686 36.8674C171.606 36.8319 171.519 36.8133 171.431 36.8128C171.343 36.8122 171.255 36.8296 171.174 36.864C171.013 36.9302 170.883 37.0558 170.811 37.2149C170.739 37.374 170.73 37.5546 170.787 37.7197Z" fill="#263238"/>
<path d="M171.226 39.7018C171.227 39.8199 171.263 39.9352 171.328 40.0332C171.394 40.1312 171.488 40.2077 171.597 40.2531C171.706 40.2984 171.826 40.3107 171.942 40.2884C172.058 40.266 172.165 40.21 172.249 40.1274C172.334 40.0447 172.392 39.9391 172.417 39.8235C172.441 39.708 172.432 39.5878 172.389 39.4778C172.346 39.3678 172.271 39.2729 172.174 39.2049C172.078 39.1369 171.963 39.0989 171.845 39.0955C171.683 39.0943 171.527 39.1574 171.411 39.271C171.295 39.3846 171.228 39.5394 171.226 39.7018Z" fill="#263238"/>
<path d="M174.15 39.517L174.06 42.8194L172.219 42.2862L173.939 39.4912C174.011 39.4845 174.082 39.4933 174.15 39.517Z" fill="#F28F8F"/>
<path d="M168.65 57.8005C168.792 54.382 169.08 51.3505 170.336 49.7552C171.591 48.1599 172.292 47.846 175.311 47.8933V48.0997C175.139 48.1104 174.972 48.1606 174.823 48.2464C174.674 48.3321 174.547 48.4512 174.451 48.5942C173.407 50.1794 172.623 51.9214 172.129 53.7542C171.269 57.0781 171.101 64.5042 171.054 68.4989C171.007 72.4936 171.054 75.7186 171.054 75.7186C171.054 75.7186 169.033 75.2456 168.409 74.2351C168.409 74.2351 168.504 61.2233 168.65 57.8005Z" fill="#E58D26"/>
<path opacity="0.35" d="M168.65 57.8005C168.792 54.382 169.08 51.3505 170.336 49.7552C171.591 48.1599 172.292 47.846 175.311 47.8933V48.0997C175.139 48.1104 174.972 48.1606 174.823 48.2464C174.674 48.3321 174.547 48.4512 174.451 48.5942C173.407 50.1794 172.623 51.9214 172.129 53.7542C171.269 57.0781 171.101 64.5042 171.054 68.4989C171.007 72.4936 171.054 75.7186 171.054 75.7186C171.054 75.7186 169.033 75.2456 168.409 74.2351C168.409 74.2351 168.504 61.2233 168.65 57.8005Z" fill="black"/>
<path d="M179.086 52.3567C179.516 50.5335 180.406 49.3467 180.806 48.405L184.582 48.9382C185.971 49.5789 187.777 51.0882 187.643 52.6362L186.654 63.842L186.93 74.4544C184.78 77.8041 178.33 77.1849 178.33 77.1849C178.33 77.1849 178.145 72.4119 178.351 63.1927C178.48 58.0241 178.54 54.6787 179.086 52.3567Z" fill="#E58D26"/>
<path opacity="0.35" d="M179.086 52.3567C179.516 50.5335 180.406 49.3467 180.806 48.405L184.582 48.9382C185.971 49.5789 187.777 51.0882 187.643 52.6362L186.654 63.842L186.93 74.4544C184.78 77.8041 178.33 77.1849 178.33 77.1849C178.33 77.1849 178.145 72.4119 178.351 63.1927C178.48 58.0241 178.54 54.6787 179.086 52.3567Z" fill="black"/>
<path d="M178.91 53.2554C179.159 52.0858 179.293 49.91 179.499 49.4714C179.706 49.0328 180.828 48.1814 180.871 47.5751V47.1924C181.226 47.261 181.554 47.4296 181.817 47.6783C182.169 47.9922 183.21 48.7189 183.21 48.7189C183.107 49.4408 182.839 50.1294 182.427 50.7313C181.808 51.6214 180.948 52.2019 180.815 51.9826C180.682 51.7633 180.703 51.4279 180.475 50.9119C180.191 50.2626 180.123 49.9874 179.822 50.6281C179.598 51.1398 178.91 53.2554 178.91 53.2554Z" fill="#37474F"/>
<path d="M172.473 52.6149C172.168 53.6039 172.972 49.2007 173.496 48.4267C174.021 47.6527 175.354 47.3474 175.354 47.3474L175.298 48.2977C174.947 48.3809 174.64 48.5927 174.438 48.8911C173.623 50.0411 172.962 51.2931 172.473 52.6149Z" fill="#37474F"/>
<path d="M178.772 54.1799C181.661 54.4753 184.532 54.9246 187.372 55.5258L187.342 55.844C184.495 55.2395 181.617 54.7888 178.721 54.4938C178.751 54.3992 178.76 54.2917 178.772 54.1799Z" fill="#E58D26"/>
<path d="M168.917 54.1199C169.859 54.0081 170.929 53.9092 172.103 53.8533L172.026 54.1758C170.865 54.2317 169.807 54.3306 168.883 54.4424C168.891 54.3349 168.904 54.2231 168.917 54.1199Z" fill="#E58D26"/>
<path d="M194.687 64.0441C190.653 53.8015 189.772 50.6152 186.925 49.4241C186.175 49.1358 185.384 48.9675 184.582 48.9253C183.881 50.2153 182.862 55.1689 186.224 58.6175C186.224 58.6175 188.667 64.6375 189.897 67.4841C189.858 70.3479 190.064 72.7344 189.191 76.6044C189.014 77.1273 188.673 77.5795 188.22 77.8944C187.196 78.4577 187.024 79.0941 186.267 79.8208C185.678 80.3884 185.162 80.5217 185.248 80.7109C185.381 80.9201 185.581 81.0787 185.815 81.1613C186.049 81.2439 186.303 81.2458 186.538 81.1667C187.092 80.9401 187.623 80.6623 188.125 80.3368C188.224 80.4529 187.265 81.9794 186.272 83.0931C184.797 84.7314 184.44 85.9139 187.385 86.03C189.23 86.1031 191.221 84.5895 192.472 80.913C192.717 80.1863 192.975 79.1371 193.238 78.1137C193.427 77.6837 194.777 70.7779 195.061 68.6537C195.439 66.0307 195.345 65.7082 194.687 64.0441Z" fill="#FFA8A7"/>
<path d="M184.079 48.9383C185.306 48.7635 186.558 48.9833 187.652 49.5661C189.247 50.5293 189.802 51.3721 191.724 55.8527C193.646 60.3333 194.025 61.1976 194.025 61.1976C194.025 61.1976 193.165 63.7518 188.03 64.0442L185.73 58.7982C185.73 58.7982 183.821 56.4203 183.644 53.4834C183.468 50.5465 184.079 48.9383 184.079 48.9383Z" fill="#E58D26"/>
<path opacity="0.45" d="M184.079 48.9383C185.306 48.7635 186.558 48.9833 187.652 49.5661C189.247 50.5293 189.802 51.3721 191.724 55.8527C193.646 60.3333 194.025 61.1976 194.025 61.1976C194.025 61.1976 193.165 63.7518 188.03 64.0442L185.73 58.7982C185.73 58.7982 183.821 56.4203 183.644 53.4834C183.468 50.5465 184.079 48.9383 184.079 48.9383Z" fill="black"/>
</svg>
